<svg version="1.0" xmlns="http://www.w3.org/2000/svg"
 width="640.000000pt" height="257.000000pt" viewBox="0 0 640.000000 257.000000"
 preserveAspectRatio="xMidYMid meet">

<g transform="translate(0.000000,257.000000) scale(0.100000,-0.100000)"
fill="#000000" stroke="none">
<path d="M2150 2274 c-459 -161 -868 -305 -907 -320 l-73 -26 0 -235 c0 -129
-3 -233 -7 -231 -15 7 -76 44 -134 81 -65 40 -126 50 -149 22 -7 -8 -24 -15
-38 -15 -36 0 -244 -63 -338 -103 -62 -26 -86 -32 -105 -25 -28 11 -36 9 -201
-43 -102 -31 -131 -45 -145 -65 -22 -34 -52 -384 -53 -610 0 -154 1 -163 24
-197 23 -34 24 -39 19 -174 l-6 -140 29 -31 c18 -19 66 -46 128 -72 93 -39
103 -41 175 -37 42 3 115 5 163 6 116 0 159 13 192 56 31 40 45 43 72 14 44
-48 66 -52 218 -39 78 7 153 18 168 26 30 16 53 72 43 106 -4 13 -37 51 -74
85 l-66 63 39 0 c36 0 45 -6 112 -79 40 -43 105 -100 144 -127 l71 -48 207 13
c383 23 371 22 403 48 18 16 29 34 29 51 0 26 1 26 43 -15 23 -23 53 -46 67
-51 38 -14 559 15 586 33 12 7 43 44 69 82 27 37 51 72 55 76 4 5 20 -26 35
-68 18 -48 37 -82 52 -92 17 -11 80 -19 230 -29 296 -19 290 -19 321 14 15 15
32 37 38 47 12 19 12 19 22 -5 22 -57 39 -62 240 -81 279 -27 297 -26 336 13
17 18 44 49 59 68 l27 35 0 -52 c0 -40 5 -58 24 -80 l24 -28 169 -2 c92 -1
239 -7 325 -13 86 -7 167 -10 180 -7 14 4 58 36 99 72 l74 66 5 -56 c4 -42 11
-61 32 -81 25 -25 33 -27 214 -41 137 -11 197 -12 217 -5 18 7 36 7 50 2 32
-14 267 -30 292 -20 12 5 58 34 103 66 67 48 87 68 119 125 34 60 46 73 109
109 41 24 76 51 83 66 7 16 11 90 11 200 0 200 -1 202 -82 281 l-53 51 -225
57 c-124 31 -292 77 -374 102 -137 42 -152 44 -189 33 -37 -11 -41 -10 -66 14
-15 14 -58 34 -101 46 -118 35 -153 46 -180 57 -47 20 -357 103 -384 103 -37
0 -73 -26 -85 -61 l-10 -29 -34 23 c-18 12 -68 31 -110 41 -72 17 -77 19 -77
45 0 35 -22 65 -57 79 -57 23 -219 64 -251 64 -36 0 -77 -30 -88 -64 -9 -30
-42 -13 -121 65 l-72 70 -393 103 c-216 57 -409 104 -429 104 -26 0 -44 -7
-63 -26 -24 -25 -26 -33 -26 -118 0 -68 4 -97 16 -115 13 -18 7 -16 -28 11
-24 18 -87 55 -140 83 l-95 49 -294 -63 c-162 -34 -304 -69 -317 -77 -12 -8
-36 -37 -53 -63 l-29 -49 -29 29 c-37 37 -57 37 -201 -2 -80 -21 -123 -38
-141 -55 -23 -22 -29 -24 -54 -12 -25 11 -100 78 -93 83 2 1 125 30 273 64
149 34 491 114 760 176 l490 115 1008 -254 1007 -254 -2 265 -3 266 -995 373
c-547 206 -1002 376 -1010 378 -8 2 -391 -128 -850 -290z m779 177 c30 -30 36
-79 36 -301 0 -220 -6 -256 -51 -310 -18 -20 -40 -32 -79 -41 -52 -12 -57 -11
-80 11 -44 41 -50 80 -50 300 0 276 8 298 125 342 60 22 76 22 99 -1z m243
-21 c46 -17 91 -40 101 -51 15 -19 17 -51 17 -330 0 -242 -3 -307 -12 -304 -7
2 -32 9 -55 15 l-42 11 -3 72 c-2 59 -6 72 -20 75 -16 3 -18 -5 -18 -68 0 -59
-3 -71 -14 -67 -8 3 -33 11 -55 17 l-41 11 0 299 c0 310 5 350 41 350 10 0 55
-14 101 -30z m-498 -72 c22 -31 22 -217 1 -258 -9 -17 -20 -30 -26 -30 -5 0 1
-10 15 -22 23 -22 25 -30 29 -155 l4 -131 -51 -10 c-28 -6 -53 -8 -56 -5 -3 2
-7 50 -10 106 -4 86 -8 102 -22 105 -15 3 -18 -9 -20 -114 l-3 -118 -48 -12
c-37 -9 -49 -9 -53 -1 -2 7 -3 145 -2 307 l3 295 90 32 c108 38 129 40 149 11z
m761 -27 l50 -19 3 -85 3 -86 -28 -3 -28 -3 -3 -115 c-3 -137 1 -158 33 -170
23 -9 25 -14 25 -80 0 -80 -1 -81 -88 -55 -85 26 -87 33 -87 336 0 239 1 258
19 278 23 26 37 26 101 2z m-1015 -101 l0 -69 -55 -12 -55 -12 0 -50 c0 -48 1
-49 26 -43 15 4 40 10 56 13 l29 6 -3 -68 c-3 -74 -1 -72 -80 -89 -26 -6 -28
-10 -28 -52 0 -38 3 -45 18 -40 9 2 32 7 50 11 l33 7 -3 -68 -3 -68 -70 -18
c-129 -32 -130 -30 -130 272 0 292 -3 283 115 326 47 17 88 29 93 27 4 -2 7
-35 7 -73z m1222 24 c121 -44 113 -20 116 -345 l3 -281 -38 7 c-21 4 -41 9
-45 11 -5 3 -8 34 -8 68 0 55 -3 64 -20 69 -18 5 -20 0 -20 -59 0 -35 -3 -64
-7 -64 -5 0 -28 6 -53 14 l-45 13 -3 283 c-2 285 0 310 34 310 7 0 46 -12 86
-26z m-1462 -318 c0 -327 7 -296 -67 -311 l-33 -7 0 107 c0 96 -2 106 -17 103
-16 -3 -19 -19 -23 -112 -6 -122 3 -108 -82 -130 l-28 -6 0 280 0 280 28 11
c15 6 39 13 55 16 l27 6 0 -107 c0 -97 2 -107 18 -104 15 3 17 18 20 119 l3
116 47 15 c26 9 48 17 50 17 1 1 2 -131 2 -293z m1741 212 c56 -21 79 -35 88
-54 7 -16 11 -105 11 -263 0 -198 -3 -241 -15 -251 -11 -10 -34 -7 -110 11
l-95 23 0 289 0 288 23 -7 c12 -4 56 -20 98 -36z m-2073 -192 c-4 -150 -5
-156 -36 -217 -26 -51 -32 -73 -32 -126 0 -69 -1 -69 -72 -87 l-28 -6 0 69 c0
52 -4 72 -17 82 -40 33 -53 88 -53 227 l0 132 25 10 c14 5 37 13 50 16 l24 6
3 -136 c4 -186 22 -184 26 2 l3 143 42 19 c73 32 70 38 65 -134z m2340 92 l52
-19 0 -64 0 -64 -32 10 c-53 15 -58 12 -58 -31 0 -39 1 -40 45 -51 l45 -11 0
-60 0 -60 -27 6 c-16 4 -36 9 -46 12 -16 5 -18 1 -15 -33 3 -36 5 -38 46 -47
l42 -9 0 -58 c0 -34 -4 -59 -10 -59 -6 0 -40 7 -76 16 -100 25 -99 23 -99 297
0 215 1 229 19 243 21 15 28 14 114 -18z m-2608 -287 c0 -143 -3 -262 -7 -264
-5 -3 -23 -8 -40 -12 l-33 -7 0 117 c0 89 -3 116 -12 113 -9 -3 -14 -39 -16
-121 l-3 -116 -37 -11 c-74 -20 -72 -23 -72 106 0 88 -3 115 -12 112 -9 -3
-15 -41 -18 -123 -5 -117 -6 -119 -30 -126 -64 -18 -60 -33 -60 231 l0 240 38
16 c79 33 87 31 107 -23 10 -26 21 -51 24 -56 4 -4 17 24 30 63 12 38 27 73
34 77 15 10 90 42 100 42 4 1 7 -116 7 -258z m2764 228 c54 -20 55 -21 71 -77
32 -114 27 -110 60 -43 22 46 33 60 44 55 9 -3 35 -13 59 -21 l42 -15 0 -240
c0 -223 -1 -239 -17 -234 -10 3 -30 8 -45 12 l-27 6 -3 116 c-2 81 -7 117 -15
120 -10 3 -13 -24 -13 -113 0 -97 -2 -116 -14 -112 -8 3 -31 9 -50 13 l-36 6
0 114 c0 105 -8 139 -28 119 -4 -4 -9 -54 -10 -112 l-4 -105 -36 7 c-20 4 -40
9 -44 11 -12 8 -10 514 2 514 5 0 34 -9 64 -21z m349 -130 l37 -13 0 -233 c0
-128 -1 -233 -2 -233 -2 0 -23 6 -48 14 l-45 13 -3 238 c-2 188 0 236 10 233
7 -3 30 -11 51 -19z m164 -61 c98 -36 93 -22 93 -260 0 -222 2 -213 -50 -199
-21 6 -26 14 -30 56 -7 67 -30 73 -30 7 l0 -49 -40 10 -40 11 0 204 c0 191 6
242 29 242 5 0 35 -10 68 -22z m-1380 -249 c167 -43 306 -79 309 -79 3 0 37
-30 75 -67 l69 -66 0 -292 0 -292 -121 20 -122 21 7 270 6 271 -46 39 c-43 37
-59 42 -302 103 -141 35 -274 68 -294 74 -38 10 -38 10 -38 63 l0 54 78 -20
c42 -11 213 -55 379 -99z m-730 -46 c129 -69 123 -62 123 -164 0 -102 9 -92
-115 -124 l-80 -20 -3 -121 -3 -122 73 -66 c53 -47 81 -66 101 -66 l27 0 0
-133 0 -133 -76 -102 c-46 -62 -85 -104 -98 -106 -11 -3 -133 -10 -270 -16
l-250 -11 -78 78 -78 78 0 392 0 393 51 83 51 83 256 56 c142 31 267 57 279
57 12 1 53 -16 90 -36z m-1745 -58 c16 -10 13 -18 -33 -78 l-51 -66 -34 26
c-19 14 -34 28 -34 31 0 3 19 34 41 69 l42 64 26 -17 c14 -10 34 -22 43 -29z
m-170 -89 l3 -94 75 24 c41 13 78 24 83 24 4 0 7 -40 7 -89 l0 -89 -100 -22
c-85 -20 -100 -26 -100 -43 0 -17 5 -19 31 -13 30 6 31 5 26 -23 -3 -15 -9
-52 -13 -80 -7 -57 -7 -57 -76 -66 -59 -8 -68 -35 -13 -35 39 0 41 -5 29 -94
-7 -46 -7 -46 -45 -46 -33 0 -39 -3 -39 -21 0 -19 4 -20 65 -14 l65 7 0 -71
c0 -39 0 -74 0 -78 0 -5 -25 -10 -56 -13 l-57 -5 146 -119 c81 -66 144 -122
141 -125 -3 -3 -59 -10 -125 -16 l-121 -11 -71 63 c-40 34 -74 63 -77 63 -3 0
-29 -32 -59 -70 l-53 -70 -96 0 -96 0 25 28 c28 30 165 187 188 215 15 18 14
18 -19 13 -19 -3 -70 -8 -112 -11 l-78 -6 0 75 0 74 100 7 c91 7 100 9 100 27
0 20 -4 20 -75 14 l-75 -7 0 59 0 60 80 12 c67 10 80 15 80 31 0 11 -1 19 -2
19 -2 0 -41 -7 -88 -15 -47 -8 -86 -15 -87 -15 -2 0 -3 29 -3 64 l0 64 35 6
c26 5 35 12 35 27 0 17 -4 19 -35 13 l-35 -6 0 74 0 73 65 19 64 18 3 86 3 85
69 29 c38 15 71 28 73 28 1 0 3 -32 3 -71 0 -39 5 -80 11 -91 11 -21 12 -21
25 3 8 14 13 56 14 101 l0 77 58 16 c31 9 62 18 67 20 31 11 34 3 37 -89z
m2248 25 c41 -11 94 -25 118 -31 l42 -11 0 -301 0 -300 -77 7 c-43 4 -79 8
-81 10 -2 2 2 13 8 25 8 15 10 92 8 251 l-3 231 -33 29 c-20 18 -43 29 -62 29
-27 0 -30 3 -30 34 0 18 -3 49 -7 67 l-6 34 24 -27 c17 -19 47 -33 99 -47z
m1258 -98 l3 -50 76 -17 c138 -33 138 -33 187 -95 l46 -59 0 -391 0 -391 -121
0 -122 0 7 403 8 402 -30 18 c-17 9 -35 17 -41 17 -8 0 -11 -87 -11 -291 l0
-291 -97 -117 c-53 -64 -97 -117 -97 -117 -2 -4 -429 36 -433 40 -3 3 5 58 17
122 l23 116 86 -6 c47 -4 115 -9 151 -11 l65 -6 38 53 37 52 -2 255 -3 255
-82 19 -83 19 0 53 0 53 63 -14 c34 -8 70 -17 80 -20 15 -5 17 2 17 44 0 27 3
51 6 54 3 3 51 -6 107 -21 l102 -28 3 -50z m-2448 60 c0 -5 -22 -69 -49 -143
l-48 -135 -172 -34 -171 -34 0 -229 0 -230 53 5 c116 13 344 29 367 26 23 -4
25 -11 45 -127 12 -67 21 -122 20 -123 0 0 -124 -9 -275 -19 l-275 -19 -72 72
-73 71 0 427 0 426 93 27 c51 14 96 26 100 26 4 0 7 -40 7 -90 0 -49 3 -90 6
-90 3 0 46 7 95 16 l89 17 33 60 32 61 80 22 c87 24 115 28 115 17z m-1525
-33 c-55 -172 -55 -176 -66 -595 -9 -342 -13 -406 -29 -445 l-18 -45 -57 -3
-57 -3 4 225 c2 124 1 223 -2 220 -3 -3 -13 -24 -22 -47 l-17 -42 0 160 c-1
145 23 512 34 523 4 5 215 71 228 71 5 1 6 -8 2 -19z m3103 -6 l112 -26 0
-390 0 -390 -47 -80 -48 -80 -135 6 c-74 4 -179 9 -232 13 l-98 6 0 150 0 149
53 -6 c28 -3 93 -8 142 -12 l90 -6 18 30 c15 27 17 63 17 346 0 174 3 316 8
316 4 0 58 -12 120 -26z m-3029 -43 l24 -18 -22 -37 c-13 -20 -25 -36 -29 -36
-3 0 -16 9 -28 21 -22 20 -22 22 -6 55 18 39 27 41 61 15z m4649 -255 l3 -128
-23 5 c-13 3 -75 16 -138 27 l-115 22 -33 55 c-30 51 -32 61 -32 147 l0 93
168 -47 167 -46 3 -128z m-2088 50 l0 -164 -81 -12 -81 -13 -54 54 -54 53 0
96 0 95 118 27 c64 14 125 26 135 27 15 1 17 -13 17 -163z m-1839 8 c-26 -33
-28 -39 -16 -58 55 -85 72 -252 40 -377 -26 -99 -26 -99 -101 -99 l-66 0 6 38
c4 20 9 49 12 63 3 14 18 33 34 42 51 31 60 45 60 100 0 106 -44 187 -101 187
-62 0 -118 -104 -105 -196 11 -85 22 -84 41 2 23 106 26 109 53 70 l23 -34
-21 -123 c-29 -165 -23 -153 -69 -130 -51 27 -77 64 -97 142 -32 126 1 264 84
347 38 38 43 40 128 49 49 6 97 11 107 12 15 1 13 -5 -12 -35z m4087 -92 c3
-108 3 -109 -45 -96 -22 6 -23 11 -23 115 l0 109 33 -13 32 -13 3 -102z m71
87 l31 -11 0 -99 c0 -91 -2 -99 -19 -99 -48 0 -51 6 -51 116 0 57 2 104 4 104
1 0 17 -5 35 -11z m-3332 -96 c-4 -38 -7 -100 -7 -140 l0 -71 -52 -7 c-29 -3
-60 -8 -69 -11 -9 -2 -42 19 -78 53 l-64 57 7 75 c3 41 9 77 12 80 6 6 168 28
223 30 l34 1 -6 -67z m3664 7 c127 -40 129 -41 129 -70 0 -17 -2 -30 -5 -30
-3 0 -44 10 -91 21 l-85 22 -45 -33 -45 -32 -60 22 c-56 21 -59 24 -59 57 0
32 4 36 53 58 28 13 58 24 66 24 7 1 72 -17 142 -39z m384 -101 c167 -41 171
-42 218 -87 l47 -46 0 -159 0 -159 -47 6 c-90 13 -83 0 -83 160 l0 142 -32 30
c-27 25 -53 35 -133 53 -182 40 -175 37 -175 77 0 29 3 34 18 30 9 -3 94 -24
187 -47z m-924 -109 c9 0 28 17 42 39 l26 39 86 -18 c47 -10 88 -20 90 -22 9
-8 -77 -208 -89 -208 -6 0 -28 4 -48 9 l-38 9 0 -122 0 -121 -67 -54 -67 -54
-153 10 c-85 6 -156 13 -159 15 -2 3 8 47 24 99 l27 94 75 3 c101 4 122 23
118 102 l-3 55 -150 20 -150 20 -3 81 -3 81 213 -39 c117 -21 220 -38 229 -38z
m-3357 -79 c19 -21 19 -21 -10 -21 -16 0 -46 -3 -66 -6 l-38 -7 0 68 0 67 48
-40 c26 -22 56 -49 66 -61z m4386 -184 l0 -210 -31 -48 -30 -47 -77 4 c-42 3
-96 7 -119 10 l-43 5 0 80 0 79 68 0 c104 1 102 -4 102 208 l0 180 65 -26 65
-25 0 -210z m-624 232 c71 -18 89 -20 109 -9 19 10 36 10 94 -5 39 -9 71 -19
71 -22 0 -3 -13 -29 -30 -58 l-30 -52 -142 24 c-208 34 -188 24 -188 88 0 65
-4 64 116 34z m267 -299 c26 0 27 -1 27 -57 -1 -55 -3 -61 -48 -112 l-48 -54
-155 12 c-85 6 -164 11 -176 11 -22 0 -23 3 -23 98 l0 98 127 -13 c125 -13
128 -12 148 8 17 17 28 20 70 15 28 -3 62 -6 78 -6z"/>
<path d="M2822 2128 c4 -243 22 -241 26 2 2 157 0 180 -13 180 -13 0 -15 -23
-13 -182z"/>
<path d="M3147 2274 c-4 -4 -7 -49 -7 -100 0 -84 2 -92 20 -97 20 -5 21 -2 18
96 -3 93 -11 120 -31 101z"/>
<path d="M2540 2156 c0 -58 11 -71 30 -36 16 31 9 84 -12 88 -15 3 -18 -5 -18
-52z"/>
<path d="M3635 2109 c-3 -8 -5 -56 -3 -105 3 -75 6 -89 21 -92 15 -3 17 6 17
85 0 62 -4 95 -14 109 -13 16 -15 17 -21 3z"/>
<path d="M3890 1869 c0 -138 1 -150 18 -147 15 3 17 18 20 118 3 133 -3 180
-23 180 -13 0 -15 -26 -15 -151z"/>
<path d="M4846 1684 c-3 -9 -6 -42 -6 -74 0 -42 4 -59 15 -64 13 -4 15 7 15
69 0 71 -11 103 -24 69z"/>
<path d="M2394 1371 c-70 -14 -84 -21 -112 -52 l-31 -35 -2 -297 -1 -296 28
-25 c27 -24 36 -25 136 -26 l106 0 31 42 31 42 0 301 0 302 -39 31 c-45 36
-38 35 -147 13z m84 -398 l-3 -238 -42 -3 -43 -3 0 224 c0 235 1 239 45 250
47 11 46 20 43 -230z"/>
<path d="M622 1048 c-42 -9 -43 -10 -26 -29 11 -13 24 -17 38 -13 21 6 46 31
46 46 0 9 0 9 -58 -4z"/>
</g>
</svg>
